<mxfile host="app.diagrams.net" modified="2024-01-24T17:45:07.995Z" agent="Mozilla/5.0 (X11; Linux x86_64; rv:121.0) Gecko/20100101 Firefox/121.0" etag="ibdJm2TKCQxm0NFBXMvp" version="22.1.22" type="device">
  <diagram name="Page-1" id="SEmlak7uieGWZUCjAaU1">
    <mxGraphModel dx="1674" dy="790" grid="1" gridSize="10" guides="1" tooltips="1" connect="1" arrows="1" fold="1" page="1" pageScale="1" pageWidth="850" pageHeight="1100" math="0" shadow="0">
      <root>
        <mxCell id="0" />
        <mxCell id="1" parent="0" />
        <mxCell id="HUGc6veq9v8A72gFGL7H-1" value="SimpleDoor" style="swimlane;fontStyle=1;align=center;verticalAlign=top;childLayout=stackLayout;horizontal=1;startSize=26;horizontalStack=0;resizeParent=1;resizeParentMax=0;resizeLast=0;collapsible=1;marginBottom=0;whiteSpace=wrap;html=1;" vertex="1" parent="1">
          <mxGeometry x="640" y="200" width="160" height="100" as="geometry" />
        </mxCell>
        <mxCell id="HUGc6veq9v8A72gFGL7H-2" value="# state: enum" style="text;strokeColor=none;fillColor=none;align=left;verticalAlign=top;spacingLeft=4;spacingRight=4;overflow=hidden;rotatable=0;points=[[0,0.5],[1,0.5]];portConstraint=eastwest;whiteSpace=wrap;html=1;" vertex="1" parent="HUGc6veq9v8A72gFGL7H-1">
          <mxGeometry y="26" width="160" height="26" as="geometry" />
        </mxCell>
        <mxCell id="HUGc6veq9v8A72gFGL7H-3" value="" style="line;strokeWidth=1;fillColor=none;align=left;verticalAlign=middle;spacingTop=-1;spacingLeft=3;spacingRight=3;rotatable=0;labelPosition=right;points=[];portConstraint=eastwest;strokeColor=inherit;" vertex="1" parent="HUGc6veq9v8A72gFGL7H-1">
          <mxGeometry y="52" width="160" height="8" as="geometry" />
        </mxCell>
        <mxCell id="HUGc6veq9v8A72gFGL7H-4" value="&lt;div&gt;+ Open(): void&lt;/div&gt;&lt;div&gt;+ Close(): void&lt;br&gt;&lt;/div&gt;" style="text;strokeColor=none;fillColor=none;align=left;verticalAlign=top;spacingLeft=4;spacingRight=4;overflow=hidden;rotatable=0;points=[[0,0.5],[1,0.5]];portConstraint=eastwest;whiteSpace=wrap;html=1;" vertex="1" parent="HUGc6veq9v8A72gFGL7H-1">
          <mxGeometry y="60" width="160" height="40" as="geometry" />
        </mxCell>
        <mxCell id="HUGc6veq9v8A72gFGL7H-38" style="edgeStyle=orthogonalEdgeStyle;rounded=0;orthogonalLoop=1;jettySize=auto;html=1;entryX=0.5;entryY=0;entryDx=0;entryDy=0;" edge="1" parent="1" source="HUGc6veq9v8A72gFGL7H-5" target="HUGc6veq9v8A72gFGL7H-26">
          <mxGeometry relative="1" as="geometry" />
        </mxCell>
        <mxCell id="HUGc6veq9v8A72gFGL7H-43" value="publish" style="edgeLabel;html=1;align=center;verticalAlign=middle;resizable=0;points=[];" vertex="1" connectable="0" parent="HUGc6veq9v8A72gFGL7H-38">
          <mxGeometry x="-0.2154" relative="1" as="geometry">
            <mxPoint as="offset" />
          </mxGeometry>
        </mxCell>
        <mxCell id="HUGc6veq9v8A72gFGL7H-5" value="SmartDoor" style="swimlane;fontStyle=1;align=center;verticalAlign=top;childLayout=stackLayout;horizontal=1;startSize=26;horizontalStack=0;resizeParent=1;resizeParentMax=0;resizeLast=0;collapsible=1;marginBottom=0;whiteSpace=wrap;html=1;" vertex="1" parent="1">
          <mxGeometry x="345" y="50" width="160" height="110" as="geometry" />
        </mxCell>
        <mxCell id="HUGc6veq9v8A72gFGL7H-7" value="" style="line;strokeWidth=1;fillColor=none;align=left;verticalAlign=middle;spacingTop=-1;spacingLeft=3;spacingRight=3;rotatable=0;labelPosition=right;points=[];portConstraint=eastwest;strokeColor=inherit;" vertex="1" parent="HUGc6veq9v8A72gFGL7H-5">
          <mxGeometry y="26" width="160" height="8" as="geometry" />
        </mxCell>
        <mxCell id="HUGc6veq9v8A72gFGL7H-8" value="&lt;div&gt;+ override Open(): void&lt;/div&gt;&lt;div&gt;+ override Close(): void&lt;/div&gt;&lt;div&gt;&amp;lt;&amp;lt;event&amp;gt;&amp;gt;&lt;/div&gt;&lt;div&gt;+ DoorOpened&lt;br&gt;&lt;/div&gt;&lt;div&gt;+ DoorClosed&lt;br&gt;&lt;/div&gt;" style="text;strokeColor=none;fillColor=none;align=left;verticalAlign=top;spacingLeft=4;spacingRight=4;overflow=hidden;rotatable=0;points=[[0,0.5],[1,0.5]];portConstraint=eastwest;whiteSpace=wrap;html=1;" vertex="1" parent="HUGc6veq9v8A72gFGL7H-5">
          <mxGeometry y="34" width="160" height="76" as="geometry" />
        </mxCell>
        <mxCell id="HUGc6veq9v8A72gFGL7H-9" value="TimerController" style="swimlane;fontStyle=1;align=center;verticalAlign=top;childLayout=stackLayout;horizontal=1;startSize=26;horizontalStack=0;resizeParent=1;resizeParentMax=0;resizeLast=0;collapsible=1;marginBottom=0;whiteSpace=wrap;html=1;" vertex="1" parent="1">
          <mxGeometry x="620" y="400" width="200" height="140" as="geometry" />
        </mxCell>
        <mxCell id="HUGc6veq9v8A72gFGL7H-10" value="- timeLimit: decimal" style="text;strokeColor=none;fillColor=none;align=left;verticalAlign=top;spacingLeft=4;spacingRight=4;overflow=hidden;rotatable=0;points=[[0,0.5],[1,0.5]];portConstraint=eastwest;whiteSpace=wrap;html=1;" vertex="1" parent="HUGc6veq9v8A72gFGL7H-9">
          <mxGeometry y="26" width="200" height="26" as="geometry" />
        </mxCell>
        <mxCell id="HUGc6veq9v8A72gFGL7H-11" value="" style="line;strokeWidth=1;fillColor=none;align=left;verticalAlign=middle;spacingTop=-1;spacingLeft=3;spacingRight=3;rotatable=0;labelPosition=right;points=[];portConstraint=eastwest;strokeColor=inherit;" vertex="1" parent="HUGc6veq9v8A72gFGL7H-9">
          <mxGeometry y="52" width="200" height="8" as="geometry" />
        </mxCell>
        <mxCell id="HUGc6veq9v8A72gFGL7H-12" value="&lt;div&gt;+ SetTimeLimit(timeLimit): void&lt;br&gt;&lt;/div&gt;&lt;div&gt;+ StartTimer(): void&lt;/div&gt;&lt;div&gt;+ StopTimer(): void&lt;/div&gt;&lt;div&gt;&amp;lt;&amp;lt;event&amp;gt;&amp;gt;&lt;/div&gt;&lt;div&gt;+ TimerElapsed&lt;br&gt;&lt;/div&gt;" style="text;strokeColor=none;fillColor=none;align=left;verticalAlign=top;spacingLeft=4;spacingRight=4;overflow=hidden;rotatable=0;points=[[0,0.5],[1,0.5]];portConstraint=eastwest;whiteSpace=wrap;html=1;" vertex="1" parent="HUGc6veq9v8A72gFGL7H-9">
          <mxGeometry y="60" width="200" height="80" as="geometry" />
        </mxCell>
        <mxCell id="HUGc6veq9v8A72gFGL7H-13" value="BuzzerAlert" style="swimlane;fontStyle=1;align=center;verticalAlign=top;childLayout=stackLayout;horizontal=1;startSize=26;horizontalStack=0;resizeParent=1;resizeParentMax=0;resizeLast=0;collapsible=1;marginBottom=0;whiteSpace=wrap;html=1;" vertex="1" parent="1">
          <mxGeometry x="345" y="550" width="160" height="60" as="geometry" />
        </mxCell>
        <mxCell id="HUGc6veq9v8A72gFGL7H-15" value="" style="line;strokeWidth=1;fillColor=none;align=left;verticalAlign=middle;spacingTop=-1;spacingLeft=3;spacingRight=3;rotatable=0;labelPosition=right;points=[];portConstraint=eastwest;strokeColor=inherit;" vertex="1" parent="HUGc6veq9v8A72gFGL7H-13">
          <mxGeometry y="26" width="160" height="8" as="geometry" />
        </mxCell>
        <mxCell id="HUGc6veq9v8A72gFGL7H-16" value="+ ExecuteAction(): void" style="text;strokeColor=none;fillColor=none;align=left;verticalAlign=top;spacingLeft=4;spacingRight=4;overflow=hidden;rotatable=0;points=[[0,0.5],[1,0.5]];portConstraint=eastwest;whiteSpace=wrap;html=1;" vertex="1" parent="HUGc6veq9v8A72gFGL7H-13">
          <mxGeometry y="34" width="160" height="26" as="geometry" />
        </mxCell>
        <mxCell id="HUGc6veq9v8A72gFGL7H-17" value="PagerAlert" style="swimlane;fontStyle=1;align=center;verticalAlign=top;childLayout=stackLayout;horizontal=1;startSize=26;horizontalStack=0;resizeParent=1;resizeParentMax=0;resizeLast=0;collapsible=1;marginBottom=0;whiteSpace=wrap;html=1;" vertex="1" parent="1">
          <mxGeometry x="55" y="440" width="160" height="60" as="geometry" />
        </mxCell>
        <mxCell id="HUGc6veq9v8A72gFGL7H-19" value="" style="line;strokeWidth=1;fillColor=none;align=left;verticalAlign=middle;spacingTop=-1;spacingLeft=3;spacingRight=3;rotatable=0;labelPosition=right;points=[];portConstraint=eastwest;strokeColor=inherit;" vertex="1" parent="HUGc6veq9v8A72gFGL7H-17">
          <mxGeometry y="26" width="160" height="8" as="geometry" />
        </mxCell>
        <mxCell id="HUGc6veq9v8A72gFGL7H-20" value="+ ExecuteAction(): void" style="text;strokeColor=none;fillColor=none;align=left;verticalAlign=top;spacingLeft=4;spacingRight=4;overflow=hidden;rotatable=0;points=[[0,0.5],[1,0.5]];portConstraint=eastwest;whiteSpace=wrap;html=1;" vertex="1" parent="HUGc6veq9v8A72gFGL7H-17">
          <mxGeometry y="34" width="160" height="26" as="geometry" />
        </mxCell>
        <mxCell id="HUGc6veq9v8A72gFGL7H-21" value="AutoClose" style="swimlane;fontStyle=1;align=center;verticalAlign=top;childLayout=stackLayout;horizontal=1;startSize=26;horizontalStack=0;resizeParent=1;resizeParentMax=0;resizeLast=0;collapsible=1;marginBottom=0;whiteSpace=wrap;html=1;" vertex="1" parent="1">
          <mxGeometry x="55" y="220" width="160" height="60" as="geometry" />
        </mxCell>
        <mxCell id="HUGc6veq9v8A72gFGL7H-23" value="" style="line;strokeWidth=1;fillColor=none;align=left;verticalAlign=middle;spacingTop=-1;spacingLeft=3;spacingRight=3;rotatable=0;labelPosition=right;points=[];portConstraint=eastwest;strokeColor=inherit;" vertex="1" parent="HUGc6veq9v8A72gFGL7H-21">
          <mxGeometry y="26" width="160" height="8" as="geometry" />
        </mxCell>
        <mxCell id="HUGc6veq9v8A72gFGL7H-24" value="+ ExecuteAction(): void" style="text;strokeColor=none;fillColor=none;align=left;verticalAlign=top;spacingLeft=4;spacingRight=4;overflow=hidden;rotatable=0;points=[[0,0.5],[1,0.5]];portConstraint=eastwest;whiteSpace=wrap;html=1;" vertex="1" parent="HUGc6veq9v8A72gFGL7H-21">
          <mxGeometry y="34" width="160" height="26" as="geometry" />
        </mxCell>
        <mxCell id="HUGc6veq9v8A72gFGL7H-25" value="Extends" style="endArrow=block;endSize=16;endFill=0;html=1;rounded=0;exitX=1;exitY=1;exitDx=0;exitDy=0;entryX=0;entryY=0;entryDx=0;entryDy=0;" edge="1" parent="1" source="HUGc6veq9v8A72gFGL7H-5" target="HUGc6veq9v8A72gFGL7H-1">
          <mxGeometry width="160" relative="1" as="geometry">
            <mxPoint x="320" y="540" as="sourcePoint" />
            <mxPoint x="480" y="540" as="targetPoint" />
          </mxGeometry>
        </mxCell>
        <mxCell id="HUGc6veq9v8A72gFGL7H-48" style="edgeStyle=orthogonalEdgeStyle;rounded=0;orthogonalLoop=1;jettySize=auto;html=1;entryX=0.5;entryY=0;entryDx=0;entryDy=0;" edge="1" parent="1" source="HUGc6veq9v8A72gFGL7H-26" target="HUGc6veq9v8A72gFGL7H-13">
          <mxGeometry relative="1" as="geometry" />
        </mxCell>
        <mxCell id="HUGc6veq9v8A72gFGL7H-50" style="rounded=0;orthogonalLoop=1;jettySize=auto;html=1;entryX=1;entryY=1;entryDx=0;entryDy=0;" edge="1" parent="1" source="HUGc6veq9v8A72gFGL7H-26" target="HUGc6veq9v8A72gFGL7H-21">
          <mxGeometry relative="1" as="geometry" />
        </mxCell>
        <mxCell id="HUGc6veq9v8A72gFGL7H-26" value="EventAggregator" style="swimlane;fontStyle=1;align=center;verticalAlign=top;childLayout=stackLayout;horizontal=1;startSize=26;horizontalStack=0;resizeParent=1;resizeParentMax=0;resizeLast=0;collapsible=1;marginBottom=0;whiteSpace=wrap;html=1;" vertex="1" parent="1">
          <mxGeometry x="325" y="290" width="200" height="130" as="geometry" />
        </mxCell>
        <mxCell id="HUGc6veq9v8A72gFGL7H-27" value="&lt;div&gt;- eventAggregator: EventAggregator&lt;/div&gt;&lt;div&gt;- subscriberList: dictionary&lt;/div&gt;" style="text;strokeColor=none;fillColor=none;align=left;verticalAlign=top;spacingLeft=4;spacingRight=4;overflow=hidden;rotatable=0;points=[[0,0.5],[1,0.5]];portConstraint=eastwest;whiteSpace=wrap;html=1;" vertex="1" parent="HUGc6veq9v8A72gFGL7H-26">
          <mxGeometry y="26" width="200" height="34" as="geometry" />
        </mxCell>
        <mxCell id="HUGc6veq9v8A72gFGL7H-28" value="" style="line;strokeWidth=1;fillColor=none;align=left;verticalAlign=middle;spacingTop=-1;spacingLeft=3;spacingRight=3;rotatable=0;labelPosition=right;points=[];portConstraint=eastwest;strokeColor=inherit;" vertex="1" parent="HUGc6veq9v8A72gFGL7H-26">
          <mxGeometry y="60" width="200" height="8" as="geometry" />
        </mxCell>
        <mxCell id="HUGc6veq9v8A72gFGL7H-29" value="&lt;div&gt;- EventAggregator()&lt;/div&gt;&lt;div&gt;+ GetInstance(): EventAggregator&lt;br&gt;&lt;/div&gt;&lt;div&gt;+ Subscribe(type, handler): void&lt;/div&gt;&lt;div&gt;+ Publish(sender, args): void&lt;br&gt;&lt;/div&gt;" style="text;strokeColor=none;fillColor=none;align=left;verticalAlign=top;spacingLeft=4;spacingRight=4;overflow=hidden;rotatable=0;points=[[0,0.5],[1,0.5]];portConstraint=eastwest;whiteSpace=wrap;html=1;" vertex="1" parent="HUGc6veq9v8A72gFGL7H-26">
          <mxGeometry y="68" width="200" height="62" as="geometry" />
        </mxCell>
        <mxCell id="HUGc6veq9v8A72gFGL7H-30" value="«interface»&lt;br&gt;&lt;div&gt;&lt;b&gt;ISmartDoorClose&lt;/b&gt;&lt;/div&gt;&lt;div&gt;+ Close(): void&lt;br&gt;&lt;/div&gt;" style="html=1;whiteSpace=wrap;" vertex="1" parent="1">
          <mxGeometry x="80" y="80" width="110" height="50" as="geometry" />
        </mxCell>
        <mxCell id="HUGc6veq9v8A72gFGL7H-31" value="Uses" style="endArrow=open;endSize=12;dashed=1;html=1;rounded=0;exitX=0.5;exitY=0;exitDx=0;exitDy=0;entryX=0.5;entryY=1;entryDx=0;entryDy=0;" edge="1" parent="1" source="HUGc6veq9v8A72gFGL7H-21" target="HUGc6veq9v8A72gFGL7H-30">
          <mxGeometry width="160" relative="1" as="geometry">
            <mxPoint x="320" y="350" as="sourcePoint" />
            <mxPoint x="480" y="350" as="targetPoint" />
          </mxGeometry>
        </mxCell>
        <mxCell id="HUGc6veq9v8A72gFGL7H-32" value="" style="endArrow=block;dashed=1;endFill=0;endSize=12;html=1;rounded=0;entryX=1;entryY=0.5;entryDx=0;entryDy=0;exitX=0;exitY=0.263;exitDx=0;exitDy=0;exitPerimeter=0;" edge="1" parent="1" source="HUGc6veq9v8A72gFGL7H-8" target="HUGc6veq9v8A72gFGL7H-30">
          <mxGeometry width="160" relative="1" as="geometry">
            <mxPoint x="300" y="240" as="sourcePoint" />
            <mxPoint x="460" y="240" as="targetPoint" />
          </mxGeometry>
        </mxCell>
        <mxCell id="HUGc6veq9v8A72gFGL7H-35" value="Implements" style="edgeLabel;html=1;align=center;verticalAlign=middle;resizable=0;points=[];" vertex="1" connectable="0" parent="HUGc6veq9v8A72gFGL7H-32">
          <mxGeometry x="0.0192" y="-2" relative="1" as="geometry">
            <mxPoint as="offset" />
          </mxGeometry>
        </mxCell>
        <mxCell id="HUGc6veq9v8A72gFGL7H-49" style="rounded=0;orthogonalLoop=1;jettySize=auto;html=1;entryX=1;entryY=0;entryDx=0;entryDy=0;" edge="1" parent="1" source="HUGc6veq9v8A72gFGL7H-29" target="HUGc6veq9v8A72gFGL7H-17">
          <mxGeometry relative="1" as="geometry" />
        </mxCell>
        <mxCell id="HUGc6veq9v8A72gFGL7H-51" value="" style="endArrow=block;startArrow=block;endFill=1;startFill=1;html=1;rounded=0;entryX=0;entryY=0.5;entryDx=0;entryDy=0;exitX=1;exitY=0.5;exitDx=0;exitDy=0;" edge="1" parent="1" source="HUGc6veq9v8A72gFGL7H-29" target="HUGc6veq9v8A72gFGL7H-10">
          <mxGeometry width="160" relative="1" as="geometry">
            <mxPoint x="450" y="490" as="sourcePoint" />
            <mxPoint x="610" y="490" as="targetPoint" />
          </mxGeometry>
        </mxCell>
      </root>
    </mxGraphModel>
  </diagram>
</mxfile>
